<?xml version="1.0" encoding="UTF-8" standalone="no"?>
<svg
   viewBox="0 0 300 300"
   version="1.1"
   id="svg140"
   sodipodi:docname="flag-usa.svg"
   width="32"
   height="32"
   inkscape:version="1.2 (dc2aedaf03, 2022-05-15)"
   xmlns:inkscape="http://www.inkscape.org/namespaces/inkscape"
   xmlns:sodipodi="http://sodipodi.sourceforge.net/DTD/sodipodi-0.dtd"
   xmlns="http://www.w3.org/2000/svg"
   xmlns:svg="http://www.w3.org/2000/svg">
  <sodipodi:namedview
     id="namedview73"
     pagecolor="#505050"
     bordercolor="#eeeeee"
     borderopacity="1"
     inkscape:showpageshadow="0"
     inkscape:pageopacity="0"
     inkscape:pagecheckerboard="0"
     inkscape:deskcolor="#505050"
     showgrid="false"
     inkscape:zoom="0.27163462"
     inkscape:cx="946.12389"
     inkscape:cy="92.035398"
     inkscape:window-width="1366"
     inkscape:window-height="745"
     inkscape:window-x="-8"
     inkscape:window-y="-8"
     inkscape:window-maximized="1"
     inkscape:current-layer="svg140" />
  <defs
     id="defs144">
    <clipPath
       clipPathUnits="userSpaceOnUse"
       id="clipPath1269">
      <circle
         style="fill:none;stroke:#000000;stroke-width:5;stroke-linecap:round;stroke-linejoin:round;stroke-dasharray:none;stroke-opacity:1;paint-order:fill markers stroke;stop-color:#000000"
         id="circle1271"
         cx="250"
         cy="321.05264"
         r="150" />
    </clipPath>
    <clipPath
       clipPathUnits="userSpaceOnUse"
       id="clipPath1273">
      <circle
         style="fill:none;stroke:#000000;stroke-width:5;stroke-linecap:round;stroke-linejoin:round;stroke-dasharray:none;stroke-opacity:1;paint-order:fill markers stroke;stop-color:#000000"
         id="circle1275"
         cx="250"
         cy="321.05264"
         r="150" />
    </clipPath>
    <clipPath
       clipPathUnits="userSpaceOnUse"
       id="clipPath1277">
      <circle
         style="fill:none;stroke:#000000;stroke-width:5;stroke-linecap:round;stroke-linejoin:round;stroke-dasharray:none;stroke-opacity:1;paint-order:fill markers stroke;stop-color:#000000"
         id="circle1279"
         cx="250"
         cy="321.05264"
         r="150" />
    </clipPath>
    <clipPath
       clipPathUnits="userSpaceOnUse"
       id="clipPath1281">
      <circle
         style="fill:none;stroke:#000000;stroke-width:5;stroke-linecap:round;stroke-linejoin:round;stroke-dasharray:none;stroke-opacity:1;paint-order:fill markers stroke;stop-color:#000000"
         id="circle1283"
         cx="250"
         cy="321.05264"
         r="150" />
    </clipPath>
    <clipPath
       clipPathUnits="userSpaceOnUse"
       id="clipPath1285">
      <circle
         style="fill:none;stroke:#000000;stroke-width:5;stroke-linecap:round;stroke-linejoin:round;stroke-dasharray:none;stroke-opacity:1;paint-order:fill markers stroke;stop-color:#000000"
         id="circle1287"
         cx="250"
         cy="321.05264"
         r="150" />
    </clipPath>
    <clipPath
       clipPathUnits="userSpaceOnUse"
       id="clipPath1289">
      <circle
         style="fill:none;stroke:#000000;stroke-width:5;stroke-linecap:round;stroke-linejoin:round;stroke-dasharray:none;stroke-opacity:1;paint-order:fill markers stroke;stop-color:#000000"
         id="circle1291"
         cx="250"
         cy="321.05264"
         r="150" />
    </clipPath>
    <clipPath
       clipPathUnits="userSpaceOnUse"
       id="clipPath1293">
      <circle
         style="fill:none;stroke:#000000;stroke-width:2.16667;stroke-linecap:round;stroke-linejoin:round;stroke-dasharray:none;stroke-opacity:1;paint-order:fill markers stroke;stop-color:#000000"
         id="circle1295"
         cx="65"
         cy="23.000004"
         r="65" />
    </clipPath>
    <clipPath
       clipPathUnits="userSpaceOnUse"
       id="clipPath1297">
      <circle
         style="fill:none;stroke:#000000;stroke-width:2.16667;stroke-linecap:round;stroke-linejoin:round;stroke-dasharray:none;stroke-opacity:1;paint-order:fill markers stroke;stop-color:#000000"
         id="circle1299"
         cx="65"
         cy="37.000004"
         r="65" />
    </clipPath>
    <clipPath
       clipPathUnits="userSpaceOnUse"
       id="clipPath1301">
      <circle
         style="fill:none;stroke:#000000;stroke-width:2.16667;stroke-linecap:round;stroke-linejoin:round;stroke-dasharray:none;stroke-opacity:1;paint-order:fill markers stroke;stop-color:#000000"
         id="circle1303"
         cx="65"
         cy="51.000008"
         r="65" />
    </clipPath>
    <clipPath
       clipPathUnits="userSpaceOnUse"
       id="clipPath1305">
      <circle
         style="fill:none;stroke:#000000;stroke-width:5;stroke-linecap:round;stroke-linejoin:round;stroke-dasharray:none;stroke-opacity:1;paint-order:fill markers stroke;stop-color:#000000"
         id="circle1307"
         cx="250"
         cy="321.05264"
         r="150" />
    </clipPath>
    <clipPath
       clipPathUnits="userSpaceOnUse"
       id="clipPath1309">
      <circle
         style="fill:none;stroke:#000000;stroke-width:5;stroke-linecap:round;stroke-linejoin:round;stroke-dasharray:none;stroke-opacity:1;paint-order:fill markers stroke;stop-color:#000000"
         id="circle1311"
         cx="250"
         cy="321.05264"
         r="150" />
    </clipPath>
    <clipPath
       clipPathUnits="userSpaceOnUse"
       id="clipPath1313">
      <circle
         style="fill:none;stroke:#000000;stroke-width:5;stroke-linecap:round;stroke-linejoin:round;stroke-dasharray:none;stroke-opacity:1;paint-order:fill markers stroke;stop-color:#000000"
         id="circle1315"
         cx="250"
         cy="321.05264"
         r="150" />
    </clipPath>
    <clipPath
       clipPathUnits="userSpaceOnUse"
       id="clipPath1317">
      <circle
         style="fill:none;stroke:#000000;stroke-width:5;stroke-linecap:round;stroke-linejoin:round;stroke-dasharray:none;stroke-opacity:1;paint-order:fill markers stroke;stop-color:#000000"
         id="circle1319"
         cx="250"
         cy="321.05264"
         r="150" />
    </clipPath>
    <clipPath
       clipPathUnits="userSpaceOnUse"
       id="clipPath1321">
      <circle
         style="fill:none;stroke:#000000;stroke-width:5;stroke-linecap:round;stroke-linejoin:round;stroke-dasharray:none;stroke-opacity:1;paint-order:fill markers stroke;stop-color:#000000"
         id="circle1323"
         cx="250"
         cy="321.05264"
         r="150" />
    </clipPath>
    <clipPath
       clipPathUnits="userSpaceOnUse"
       id="clipPath1325">
      <circle
         style="fill:none;stroke:#000000;stroke-width:5;stroke-linecap:round;stroke-linejoin:round;stroke-dasharray:none;stroke-opacity:1;paint-order:fill markers stroke;stop-color:#000000"
         id="circle1327"
         cx="250"
         cy="321.05264"
         r="150" />
    </clipPath>
    <clipPath
       clipPathUnits="userSpaceOnUse"
       id="clipPath1329">
      <circle
         style="fill:none;stroke:#000000;stroke-width:5;stroke-linecap:round;stroke-linejoin:round;stroke-dasharray:none;stroke-opacity:1;paint-order:fill markers stroke;stop-color:#000000"
         id="circle1331"
         cx="250"
         cy="321.05264"
         r="150" />
    </clipPath>
    <clipPath
       clipPathUnits="userSpaceOnUse"
       id="clipPath1333">
      <circle
         style="fill:none;stroke:#000000;stroke-width:5;stroke-linecap:round;stroke-linejoin:round;stroke-dasharray:none;stroke-opacity:1;paint-order:fill markers stroke;stop-color:#000000"
         id="circle1335"
         cx="250"
         cy="321.05264"
         r="150" />
    </clipPath>
    <clipPath
       clipPathUnits="userSpaceOnUse"
       id="clipPath1337">
      <circle
         style="fill:none;stroke:#000000;stroke-width:5;stroke-linecap:round;stroke-linejoin:round;stroke-dasharray:none;stroke-opacity:1;paint-order:fill markers stroke;stop-color:#000000"
         id="circle1339"
         cx="250"
         cy="321.05264"
         r="150" />
    </clipPath>
    <clipPath
       clipPathUnits="userSpaceOnUse"
       id="clipPath1341">
      <circle
         style="fill:none;stroke:#000000;stroke-width:5;stroke-linecap:round;stroke-linejoin:round;stroke-dasharray:none;stroke-opacity:1;paint-order:fill markers stroke;stop-color:#000000"
         id="circle1343"
         cx="250"
         cy="321.05264"
         r="150" />
    </clipPath>
    <clipPath
       clipPathUnits="userSpaceOnUse"
       id="clipPath1345">
      <circle
         style="fill:none;stroke:#000000;stroke-width:5;stroke-linecap:round;stroke-linejoin:round;stroke-dasharray:none;stroke-opacity:1;paint-order:fill markers stroke;stop-color:#000000"
         id="circle1347"
         cx="250"
         cy="321.05264"
         r="150" />
    </clipPath>
    <clipPath
       clipPathUnits="userSpaceOnUse"
       id="clipPath1349">
      <circle
         style="fill:none;stroke:#000000;stroke-width:5;stroke-linecap:round;stroke-linejoin:round;stroke-dasharray:none;stroke-opacity:1;paint-order:fill markers stroke;stop-color:#000000"
         id="circle1351"
         cx="250"
         cy="321.05264"
         r="150" />
    </clipPath>
    <clipPath
       clipPathUnits="userSpaceOnUse"
       id="clipPath1353">
      <circle
         style="fill:none;stroke:#000000;stroke-width:2.16667;stroke-linecap:round;stroke-linejoin:round;stroke-dasharray:none;stroke-opacity:1;paint-order:fill markers stroke;stop-color:#000000"
         id="circle1355"
         cx="65"
         cy="65.000008"
         r="65" />
    </clipPath>
    <clipPath
       clipPathUnits="userSpaceOnUse"
       id="clipPath1357">
      <circle
         style="fill:none;stroke:#000000;stroke-width:2.16667;stroke-linecap:round;stroke-linejoin:round;stroke-dasharray:none;stroke-opacity:1;paint-order:fill markers stroke;stop-color:#000000"
         id="circle1359"
         cx="65"
         cy="65.000008"
         r="65" />
    </clipPath>
  </defs>
  <g
     fill="#bf0a30"
     fill-rule="evenodd"
     font-size="12px"
     id="g16"
     transform="matrix(2.3076923,0,0,2.3076923,5e-7,-5.9111328e-6)"
     clip-path="url(#clipPath1357)">
    <path
       d="M 0,0 H 247 V 10 H 0 Z"
       id="path2" />
    <path
       d="M 0,20 H 247 V 30 H 0 Z"
       id="path4" />
    <path
       d="M 0,40 H 247 V 50 H 0 Z"
       id="path6" />
    <path
       d="M 0,60 H 247 V 70 H 0 Z"
       id="path8" />
    <path
       d="M 0,80 H 247 V 90 H 0 Z"
       id="path10" />
    <path
       d="m 0,100 h 247 v 10 H 0 Z"
       id="path12" />
    <path
       d="m 0,120 h 247 v 10 H 0 Z"
       id="path14" />
  </g>
  <g
     fill="#ffffff"
     fill-rule="evenodd"
     font-size="12px"
     id="g30"
     transform="matrix(2.3076923,0,0,2.3076923,5e-7,-5.9111328e-6)"
     clip-path="url(#clipPath1353)">
    <path
       d="M 0,10 H 247 V 20 H 0 Z"
       id="path18" />
    <path
       d="M 0,30 H 247 V 40 H 0 Z"
       id="path20" />
    <path
       d="M 0,50 H 247 V 60 H 0 Z"
       id="path22" />
    <path
       d="M 0,70 H 247 V 80 H 0 Z"
       id="path24" />
    <path
       d="m 0,90 h 247 v 10 H 0 Z"
       id="path26" />
    <path
       d="m 0,110 h 247 v 10 H 0 Z"
       id="path28" />
  </g>
  <path
     d="M 100,171.05263 H 328.00002 V 332.59109 H 100 Z"
     fill="#002868"
     fill-rule="evenodd"
     id="path32"
     style="stroke-width:2.30768"
     clip-path="url(#clipPath1349)"
     transform="translate(-100,-171.05264)" />
  <path
     d="m 118.99992,177.96648 2.07448,6.38468 h 6.71333 l -5.43117,3.94593 2.07452,6.38468 -5.43116,-3.9459 -5.43116,3.9459 2.07451,-6.38468 -5.43117,-3.94593 h 6.71333 z"
     fill="#ffffff"
     fill-rule="evenodd"
     id="path34"
     style="stroke-width:2.30768"
     clip-path="url(#clipPath1345)"
     transform="translate(-100,-171.05264)" />
  <path
     d="m 157,177.96648 2.07448,6.38468 h 6.71332 l -5.43116,3.94593 2.07451,6.38468 -5.43115,-3.9459 -5.43117,3.9459 2.07452,-6.38468 -5.43118,-3.94593 h 6.71334 z"
     fill="#ffffff"
     fill-rule="evenodd"
     id="path36"
     style="stroke-width:2.30768"
     clip-path="url(#clipPath1341)"
     transform="translate(-100,-171.05264)" />
  <path
     d="m 195.00076,177.96648 2.07451,6.38468 h 6.71329 l -5.43113,3.94593 2.07448,6.38468 -5.43115,-3.9459 -5.43113,3.9459 2.07448,-6.38468 -5.43115,-3.94593 h 6.71331 z"
     fill="#ffffff"
     fill-rule="evenodd"
     id="path38"
     style="stroke-width:2.30768"
     clip-path="url(#clipPath1337)"
     transform="translate(-100,-171.05264)" />
  <path
     d="m 232.99922,177.96648 2.07451,6.38468 h 6.71329 l -5.43113,3.94593 2.0745,6.38468 -5.43117,-3.9459 -5.43113,3.9459 2.0745,-6.38468 -5.43118,-3.94593 h 6.71331 z"
     fill="#ffffff"
     fill-rule="evenodd"
     id="path40"
     style="stroke-width:2.30768"
     clip-path="url(#clipPath1333)"
     transform="translate(-100,-171.05264)" />
  <path
     d="m 271,177.96648 2.07449,6.38468 h 6.71331 l -5.43115,3.94593 2.0745,6.38468 -5.43115,-3.9459 -5.43115,3.9459 2.0745,-6.38468 -5.43118,-3.94593 h 6.71334 z"
     fill="#ffffff"
     fill-rule="evenodd"
     id="path42"
     style="stroke-width:2.30768"
     clip-path="url(#clipPath1329)"
     transform="translate(-100,-171.05264)" />
  <path
     d="m 309.00078,177.96648 2.07449,6.38468 h 6.71332 l -5.43116,3.94593 2.07448,6.38468 -5.43113,-3.9459 -5.43117,3.9459 2.0745,-6.38468 -5.43113,-3.94593 h 6.71329 z"
     fill="#ffffff"
     fill-rule="evenodd"
     id="path44"
     style="stroke-width:2.30768"
     clip-path="url(#clipPath1325)"
     transform="translate(-100,-171.05264)" />
  <path
     d="m 138.00076,194.12032 2.07451,6.38469 h 6.71329 l -5.43113,3.94594 2.07448,6.38469 -5.43115,-3.94594 -5.43115,3.94594 2.0745,-6.38469 -5.43115,-3.94594 h 6.71331 z"
     fill="#ffffff"
     fill-rule="evenodd"
     id="path46"
     style="stroke-width:2.30768"
     clip-path="url(#clipPath1321)"
     transform="translate(-100,-171.05264)" />
  <path
     d="m 175.99922,194.12032 2.0745,6.38469 h 6.7133 l -5.43114,3.94594 2.07451,6.38469 -5.43117,-3.94594 -5.43115,3.94594 2.07452,-6.38469 -5.43118,-3.94594 h 6.71331 z"
     fill="#ffffff"
     fill-rule="evenodd"
     id="path48"
     style="stroke-width:2.30768"
     clip-path="url(#clipPath1317)"
     transform="translate(-100,-171.05264)" />
  <path
     d="m 214,194.12032 2.07448,6.38469 h 6.71332 l -5.43116,3.94594 2.07451,6.38469 L 214,206.8897 l -5.43117,3.94594 2.07452,-6.38469 -5.43118,-3.94594 h 6.71334 z"
     fill="#ffffff"
     fill-rule="evenodd"
     id="path50"
     style="stroke-width:2.30768"
     clip-path="url(#clipPath1313)"
     transform="translate(-100,-171.05264)" />
  <path
     d="m 252.00076,194.12032 2.07451,6.38469 h 6.71329 l -5.43113,3.94594 2.07448,6.38469 -5.43115,-3.94594 -5.43113,3.94594 2.07448,-6.38469 -5.43115,-3.94594 h 6.71331 z"
     fill="#ffffff"
     fill-rule="evenodd"
     id="path52"
     style="stroke-width:2.30768"
     clip-path="url(#clipPath1309)"
     transform="translate(-100,-171.05264)" />
  <path
     d="m 289.99922,194.12032 2.07451,6.38469 h 6.71329 l -5.43113,3.94594 2.0745,6.38469 -5.43117,-3.94594 -5.43113,3.94594 2.0745,-6.38469 -5.43118,-3.94594 h 6.71331 z"
     fill="#ffffff"
     fill-rule="evenodd"
     id="path54"
     style="stroke-width:2.30768"
     clip-path="url(#clipPath1305)"
     transform="translate(-100,-171.05264)" />
  <g
     transform="matrix(2.3076923,0,0,2.3076923,5e-7,32.307684)"
     fill="#ffffff"
     fill-rule="evenodd"
     id="g78"
     clip-path="url(#clipPath1301)">
    <path
       transform="translate(8.2333,7)"
       d="m 0,-4.004 0.89895,2.7667 h 2.9091 L 1.45455,0.4726 2.3535,3.2393 0,1.5294 -2.3535,3.2393 -1.45455,0.4726 -3.80805,-1.2373 h 2.9091 z"
       id="path56" />
    <path
       transform="translate(24.7,7)"
       d="m 0,-4.004 0.89895,2.7667 h 2.9091 L 1.45455,0.4726 2.3535,3.2393 0,1.5294 -2.3535,3.2393 -1.45455,0.4726 -3.80805,-1.2373 h 2.9091 z"
       id="path58" />
    <path
       transform="translate(41.167,7)"
       d="m 0,-4.004 0.89895,2.7667 h 2.9091 L 1.45455,0.4726 2.3535,3.2393 0,1.5294 -2.3535,3.2393 -1.45455,0.4726 -3.80805,-1.2373 h 2.9091 z"
       id="path60" />
    <path
       transform="translate(57.633,7)"
       d="m 0,-4.004 0.89895,2.7667 h 2.9091 L 1.45455,0.4726 2.3535,3.2393 0,1.5294 -2.3535,3.2393 -1.45455,0.4726 -3.80805,-1.2373 h 2.9091 z"
       id="path62" />
    <path
       transform="translate(74.1,7)"
       d="m 0,-4.004 0.89895,2.7667 h 2.9091 L 1.45455,0.4726 2.3535,3.2393 0,1.5294 -2.3535,3.2393 -1.45455,0.4726 -3.80805,-1.2373 h 2.9091 z"
       id="path64" />
    <path
       transform="translate(90.567,7)"
       d="m 0,-4.004 0.89895,2.7667 h 2.9091 L 1.45455,0.4726 2.3535,3.2393 0,1.5294 -2.3535,3.2393 -1.45455,0.4726 -3.80805,-1.2373 h 2.9091 z"
       id="path66" />
    <path
       transform="translate(16.467,14)"
       d="m 0,-4.004 0.89895,2.7667 h 2.9091 L 1.45455,0.4726 2.3535,3.2393 0,1.5294 -2.3535,3.2393 -1.45455,0.4726 -3.80805,-1.2373 h 2.9091 z"
       id="path68" />
    <path
       transform="translate(32.933,14)"
       d="m 0,-4.004 0.89895,2.7667 h 2.9091 L 1.45455,0.4726 2.3535,3.2393 0,1.5294 -2.3535,3.2393 -1.45455,0.4726 -3.80805,-1.2373 h 2.9091 z"
       id="path70" />
    <path
       transform="translate(49.4,14)"
       d="m 0,-4.004 0.89895,2.7667 h 2.9091 L 1.45455,0.4726 2.3535,3.2393 0,1.5294 -2.3535,3.2393 -1.45455,0.4726 -3.80805,-1.2373 h 2.9091 z"
       id="path72" />
    <path
       transform="translate(65.867,14)"
       d="m 0,-4.004 0.89895,2.7667 h 2.9091 L 1.45455,0.4726 2.3535,3.2393 0,1.5294 -2.3535,3.2393 -1.45455,0.4726 -3.80805,-1.2373 h 2.9091 z"
       id="path74" />
    <path
       transform="translate(82.333,14)"
       d="m 0,-4.004 0.89895,2.7667 h 2.9091 L 1.45455,0.4726 2.3535,3.2393 0,1.5294 -2.3535,3.2393 -1.45455,0.4726 -3.80805,-1.2373 h 2.9091 z"
       id="path76" />
  </g>
  <g
     transform="matrix(2.3076923,0,0,2.3076923,5e-7,64.615384)"
     fill="#ffffff"
     fill-rule="evenodd"
     id="g102"
     clip-path="url(#clipPath1297)">
    <path
       transform="translate(8.2333,7)"
       d="m 0,-4.004 0.89895,2.7667 h 2.9091 L 1.45455,0.4726 2.3535,3.2393 0,1.5294 -2.3535,3.2393 -1.45455,0.4726 -3.80805,-1.2373 h 2.9091 z"
       id="path80" />
    <path
       transform="translate(24.7,7)"
       d="m 0,-4.004 0.89895,2.7667 h 2.9091 L 1.45455,0.4726 2.3535,3.2393 0,1.5294 -2.3535,3.2393 -1.45455,0.4726 -3.80805,-1.2373 h 2.9091 z"
       id="path82" />
    <path
       transform="translate(41.167,7)"
       d="m 0,-4.004 0.89895,2.7667 h 2.9091 L 1.45455,0.4726 2.3535,3.2393 0,1.5294 -2.3535,3.2393 -1.45455,0.4726 -3.80805,-1.2373 h 2.9091 z"
       id="path84" />
    <path
       transform="translate(57.633,7)"
       d="m 0,-4.004 0.89895,2.7667 h 2.9091 L 1.45455,0.4726 2.3535,3.2393 0,1.5294 -2.3535,3.2393 -1.45455,0.4726 -3.80805,-1.2373 h 2.9091 z"
       id="path86" />
    <path
       transform="translate(74.1,7)"
       d="m 0,-4.004 0.89895,2.7667 h 2.9091 L 1.45455,0.4726 2.3535,3.2393 0,1.5294 -2.3535,3.2393 -1.45455,0.4726 -3.80805,-1.2373 h 2.9091 z"
       id="path88" />
    <path
       transform="translate(90.567,7)"
       d="m 0,-4.004 0.89895,2.7667 h 2.9091 L 1.45455,0.4726 2.3535,3.2393 0,1.5294 -2.3535,3.2393 -1.45455,0.4726 -3.80805,-1.2373 h 2.9091 z"
       id="path90" />
    <path
       transform="translate(16.467,14)"
       d="m 0,-4.004 0.89895,2.7667 h 2.9091 L 1.45455,0.4726 2.3535,3.2393 0,1.5294 -2.3535,3.2393 -1.45455,0.4726 -3.80805,-1.2373 h 2.9091 z"
       id="path92" />
    <path
       transform="translate(32.933,14)"
       d="m 0,-4.004 0.89895,2.7667 h 2.9091 L 1.45455,0.4726 2.3535,3.2393 0,1.5294 -2.3535,3.2393 -1.45455,0.4726 -3.80805,-1.2373 h 2.9091 z"
       id="path94" />
    <path
       transform="translate(49.4,14)"
       d="m 0,-4.004 0.89895,2.7667 h 2.9091 L 1.45455,0.4726 2.3535,3.2393 0,1.5294 -2.3535,3.2393 -1.45455,0.4726 -3.80805,-1.2373 h 2.9091 z"
       id="path96" />
    <path
       transform="translate(65.867,14)"
       d="m 0,-4.004 0.89895,2.7667 h 2.9091 L 1.45455,0.4726 2.3535,3.2393 0,1.5294 -2.3535,3.2393 -1.45455,0.4726 -3.80805,-1.2373 h 2.9091 z"
       id="path98" />
    <path
       transform="translate(82.333,14)"
       d="m 0,-4.004 0.89895,2.7667 h 2.9091 L 1.45455,0.4726 2.3535,3.2393 0,1.5294 -2.3535,3.2393 -1.45455,0.4726 -3.80805,-1.2373 h 2.9091 z"
       id="path100" />
  </g>
  <g
     transform="matrix(2.3076923,0,0,2.3076923,5e-7,96.923074)"
     fill="#ffffff"
     fill-rule="evenodd"
     id="g126"
     clip-path="url(#clipPath1293)">
    <path
       transform="translate(8.2333,7)"
       d="m 0,-4.004 0.89895,2.7667 h 2.9091 L 1.45455,0.4726 2.3535,3.2393 0,1.5294 -2.3535,3.2393 -1.45455,0.4726 -3.80805,-1.2373 h 2.9091 z"
       id="path104" />
    <path
       transform="translate(24.7,7)"
       d="m 0,-4.004 0.89895,2.7667 h 2.9091 L 1.45455,0.4726 2.3535,3.2393 0,1.5294 -2.3535,3.2393 -1.45455,0.4726 -3.80805,-1.2373 h 2.9091 z"
       id="path106" />
    <path
       transform="translate(41.167,7)"
       d="m 0,-4.004 0.89895,2.7667 h 2.9091 L 1.45455,0.4726 2.3535,3.2393 0,1.5294 -2.3535,3.2393 -1.45455,0.4726 -3.80805,-1.2373 h 2.9091 z"
       id="path108" />
    <path
       transform="translate(57.633,7)"
       d="m 0,-4.004 0.89895,2.7667 h 2.9091 L 1.45455,0.4726 2.3535,3.2393 0,1.5294 -2.3535,3.2393 -1.45455,0.4726 -3.80805,-1.2373 h 2.9091 z"
       id="path110" />
    <path
       transform="translate(74.1,7)"
       d="m 0,-4.004 0.89895,2.7667 h 2.9091 L 1.45455,0.4726 2.3535,3.2393 0,1.5294 -2.3535,3.2393 -1.45455,0.4726 -3.80805,-1.2373 h 2.9091 z"
       id="path112" />
    <path
       transform="translate(90.567,7)"
       d="m 0,-4.004 0.89895,2.7667 h 2.9091 L 1.45455,0.4726 2.3535,3.2393 0,1.5294 -2.3535,3.2393 -1.45455,0.4726 -3.80805,-1.2373 h 2.9091 z"
       id="path114" />
    <path
       transform="translate(16.467,14)"
       d="m 0,-4.004 0.89895,2.7667 h 2.9091 L 1.45455,0.4726 2.3535,3.2393 0,1.5294 -2.3535,3.2393 -1.45455,0.4726 -3.80805,-1.2373 h 2.9091 z"
       id="path116" />
    <path
       transform="translate(32.933,14)"
       d="m 0,-4.004 0.89895,2.7667 h 2.9091 L 1.45455,0.4726 2.3535,3.2393 0,1.5294 -2.3535,3.2393 -1.45455,0.4726 -3.80805,-1.2373 h 2.9091 z"
       id="path118" />
    <path
       transform="translate(49.4,14)"
       d="m 0,-4.004 0.89895,2.7667 h 2.9091 L 1.45455,0.4726 2.3535,3.2393 0,1.5294 -2.3535,3.2393 -1.45455,0.4726 -3.80805,-1.2373 h 2.9091 z"
       id="path120" />
    <path
       transform="translate(65.867,14)"
       d="m 0,-4.004 0.89895,2.7667 h 2.9091 L 1.45455,0.4726 2.3535,3.2393 0,1.5294 -2.3535,3.2393 -1.45455,0.4726 -3.80805,-1.2373 h 2.9091 z"
       id="path122" />
    <path
       transform="translate(82.333,14)"
       d="m 0,-4.004 0.89895,2.7667 h 2.9091 L 1.45455,0.4726 2.3535,3.2393 0,1.5294 -2.3535,3.2393 -1.45455,0.4726 -3.80805,-1.2373 h 2.9091 z"
       id="path124" />
  </g>
  <path
     d="m 118.99992,307.19724 2.07448,6.38472 h 6.71333 l -5.43117,3.94591 2.07452,6.3847 -5.43116,-3.94592 -5.43116,3.94592 2.07451,-6.3847 -5.43117,-3.94591 h 6.71333 z"
     fill="#ffffff"
     fill-rule="evenodd"
     id="path128"
     style="stroke-width:2.30768"
     clip-path="url(#clipPath1289)"
     transform="translate(-100,-171.05264)" />
  <path
     d="m 157,307.19724 2.07448,6.38472 h 6.71332 l -5.43116,3.94591 2.07451,6.3847 -5.43115,-3.94592 -5.43117,3.94592 2.07452,-6.3847 -5.43118,-3.94591 h 6.71334 z"
     fill="#ffffff"
     fill-rule="evenodd"
     id="path130"
     style="stroke-width:2.30768"
     clip-path="url(#clipPath1285)"
     transform="translate(-100,-171.05264)" />
  <path
     d="m 195.00076,307.19724 2.07451,6.38472 h 6.71329 l -5.43113,3.94591 2.07448,6.3847 -5.43115,-3.94592 -5.43113,3.94592 2.07448,-6.3847 -5.43115,-3.94591 h 6.71331 z"
     fill="#ffffff"
     fill-rule="evenodd"
     id="path132"
     style="stroke-width:2.30768"
     clip-path="url(#clipPath1281)"
     transform="translate(-100,-171.05264)" />
  <path
     d="m 232.99922,307.19724 2.07451,6.38472 h 6.71329 l -5.43113,3.94591 2.0745,6.3847 -5.43117,-3.94592 -5.43113,3.94592 2.0745,-6.3847 -5.43118,-3.94591 h 6.71331 z"
     fill="#ffffff"
     fill-rule="evenodd"
     id="path134"
     style="stroke-width:2.30768"
     clip-path="url(#clipPath1277)"
     transform="translate(-100,-171.05264)" />
  <path
     d="m 271,307.19724 2.07449,6.38472 h 6.71331 l -5.43115,3.94591 2.0745,6.3847 -5.43115,-3.94592 -5.43115,3.94592 2.0745,-6.3847 -5.43118,-3.94591 h 6.71334 z"
     fill="#ffffff"
     fill-rule="evenodd"
     id="path136"
     style="stroke-width:2.30768"
     clip-path="url(#clipPath1273)"
     transform="translate(-100,-171.05264)" />
  <path
     d="m 309.00078,307.19724 2.07449,6.38472 h 6.71332 l -5.43116,3.94591 2.07448,6.3847 -5.43113,-3.94592 -5.43117,3.94592 2.0745,-6.3847 -5.43113,-3.94591 h 6.71329 z"
     fill="#ffffff"
     fill-rule="evenodd"
     id="path138"
     style="stroke-width:2.30768"
     clip-path="url(#clipPath1269)"
     transform="translate(-100,-171.05264)" />
</svg>
