<?xml version="1.0" encoding="UTF-8" standalone="no"?>
<!-- Generator: Adobe Illustrator 17.0.0, SVG Export Plug-In . SVG Version: 6.00 Build 0)  -->

<svg
   version="1.1"
   x="0px"
   y="0px"
   width="50"
   height="50"
   viewBox="0 0 50 50.000001"
   enable-background="new 0 0 1094 800"
   xml:space="preserve"
   id="svg96"
   sodipodi:docname="icon-email.svg"
   inkscape:version="1.2 (dc2aedaf03, 2022-05-15)"
   xmlns:inkscape="http://www.inkscape.org/namespaces/inkscape"
   xmlns:sodipodi="http://sodipodi.sourceforge.net/DTD/sodipodi-0.dtd"
   xmlns="http://www.w3.org/2000/svg"
   xmlns:svg="http://www.w3.org/2000/svg"
   xmlns:rdf="http://www.w3.org/1999/02/22-rdf-syntax-ns#"
   xmlns:cc="http://creativecommons.org/ns#"
   xmlns:dc="http://purl.org/dc/elements/1.1/"><sodipodi:namedview
   id="namedview49"
   pagecolor="#505050"
   bordercolor="#eeeeee"
   borderopacity="1"
   inkscape:showpageshadow="0"
   inkscape:pageopacity="0"
   inkscape:pagecheckerboard="0"
   inkscape:deskcolor="#505050"
   showgrid="false"
   inkscape:zoom="7.9903066"
   inkscape:cx="18.897898"
   inkscape:cy="27.658513"
   inkscape:window-width="1366"
   inkscape:window-height="745"
   inkscape:window-x="-8"
   inkscape:window-y="-8"
   inkscape:window-maximized="1"
   inkscape:current-layer="svg96" /><metadata
   id="metadata102"><rdf:RDF><cc:Work
       rdf:about=""><dc:format>image/svg+xml</dc:format><dc:type
         rdf:resource="http://purl.org/dc/dcmitype/StillImage" /></cc:Work></rdf:RDF></metadata><defs
   id="defs100">
	

	
	

	
	

	
	

	
	

	
	

	
	

	
	

	
	

	
	

	
	

	
	

</defs>









<circle
   style="fill:#ffffff;fill-opacity:1;stroke-width:0.21605"
   id="circle50"
   r="25"
   cy="25"
   cx="25" /><g
   id="g56"
   transform="matrix(0.21604992,0,0,0.21604992,-177.01921,-116.92536)"
   style="fill:#000000">
		<g
   id="g54"
   style="fill:#000000">
			<path
   style="clip-rule:evenodd;fill:#000000;fill-rule:evenodd"
   id="path52"
   d="m 1002.524,610.833 c -1.774,-0.08 -0.901,-0.438 -1.858,0 h -89.788 c -10.13,0 -32.288,-1.999 -40.25,0.619 0.083,32.698 1.822,61.172 1.858,92.265 h 129.419 c -0.08,-3.053 -0.66,-8.576 0.619,-10.527 z m -115.795,7.431 h 97.219 c -6.063,12.639 -23.319,27.033 -34.058,37.773 -3.844,3.845 -8.234,11.099 -13.623,13.004 -16.511,-16.511 -33.027,-33.027 -49.538,-49.538 z m -4.954,69.972 c -2.032,-0.445 -1.443,-0.633 -3.096,-1.238 v -60.065 c 4.189,1.498 6.975,6.356 9.908,9.288 7.18,7.18 14.424,13.902 21.054,21.673 -1.729,8.368 -22.517,22.332 -27.866,30.342 z m 102.792,9.289 h -73.069 c -8.979,-10e-4 -22.143,1.578 -24.769,-3.096 9.7,-9.907 19.403,-19.816 29.104,-29.723 6.192,6.192 12.385,12.385 18.577,18.577 7.113,-2.568 13.418,-13.699 19.815,-17.958 0.206,-0.206 0.413,-0.413 0.619,-0.619 10.113,10.319 20.229,20.642 30.342,30.961 -0.207,0.619 -0.413,1.239 -0.619,1.858 z m 8.669,-9.289 -0.619,0.619 -19.815,-19.815 c -3.106,-4.112 -6.905,-9.504 -11.146,-12.385 1.22,-3.383 4.492,-5.111 6.812,-7.431 7.636,-7.843 15.275,-15.688 22.911,-23.531 h 1.238 c -0.582,2.145 0.511,3.157 0.619,6.192 0.206,10.526 0.413,21.055 0.619,31.581 -10e-4,4.227 -1.204,12.528 0.619,15.481 0.13,3.368 0.53,7.725 -1.238,9.289 z" />
		</g>
	</g>



</svg>
