<?xml version="1.0" encoding="UTF-8" standalone="no"?>
<!-- Generator: Adobe Illustrator 17.0.0, SVG Export Plug-In . SVG Version: 6.00 Build 0)  -->

<svg
   version="1.1"
   x="0px"
   y="0px"
   width="50"
   height="50"
   viewBox="0 0 50 50.000001"
   enable-background="new 0 0 1094 800"
   xml:space="preserve"
   id="svg96"
   sodipodi:docname="icon-github.svg"
   inkscape:version="1.2 (dc2aedaf03, 2022-05-15)"
   xmlns:inkscape="http://www.inkscape.org/namespaces/inkscape"
   xmlns:sodipodi="http://sodipodi.sourceforge.net/DTD/sodipodi-0.dtd"
   xmlns="http://www.w3.org/2000/svg"
   xmlns:svg="http://www.w3.org/2000/svg"
   xmlns:rdf="http://www.w3.org/1999/02/22-rdf-syntax-ns#"
   xmlns:cc="http://creativecommons.org/ns#"
   xmlns:dc="http://purl.org/dc/elements/1.1/"><sodipodi:namedview
   id="namedview49"
   pagecolor="#505050"
   bordercolor="#eeeeee"
   borderopacity="1"
   inkscape:showpageshadow="0"
   inkscape:pageopacity="0"
   inkscape:pagecheckerboard="0"
   inkscape:deskcolor="#505050"
   showgrid="false"
   inkscape:zoom="0.24969708"
   inkscape:cx="148.17954"
   inkscape:cy="216.26204"
   inkscape:window-width="1366"
   inkscape:window-height="745"
   inkscape:window-x="-8"
   inkscape:window-y="-8"
   inkscape:window-maximized="1"
   inkscape:current-layer="svg96" /><metadata
   id="metadata102"><rdf:RDF><cc:Work
       rdf:about=""><dc:format>image/svg+xml</dc:format><dc:type
         rdf:resource="http://purl.org/dc/dcmitype/StillImage" /></cc:Work></rdf:RDF></metadata><defs
   id="defs100">
	

	
	

	
	

	
	

	
	

	
	

	
	

	
	

	
	

	
	

	
	

	
	

</defs>






<circle
   style="fill:#ffffff;fill-opacity:1;stroke-width:0.21605"
   id="circle31"
   r="25"
   cy="25"
   cx="25" /><path
   style="clip-rule:evenodd;fill:#000000;fill-rule:evenodd;stroke-width:0.21605"
   id="path33"
   d="m 27.283657,30.914159 c -0.0121,1.66207 -0.30852,4.98816 0.0907,6.35143 0.19228,0.65658 0.75272,0.80738 0.81667,1.63334 -0.11408,0.059 -0.18797,0.099 -0.27223,0.18148 -3.31269,-0.67688 -2.59043,-4.57529 -2.54053,-8.43848 -0.15123,0 -0.30247,0 -0.4537,0 0.0577,3.35223 0.94932,8.38144 -2.72202,8.34774 -0.0573,-0.15923 -0.0175,-0.0881 -0.0907,-0.18148 0.16982,-0.58723 0.65658,-0.81732 0.81667,-1.45186 0.0303,-2.17735 0.0605,-4.35556 0.0907,-6.53292 -0.0302,0 -0.0605,0 -0.0907,0 -0.63475,1.03985 -0.4362,3.09233 -0.54444,4.62758 -0.0164,0.23355 0.11602,1.20729 -0.0907,1.54259 -0.31587,0.95257 -1.73769,1.44538 -2.99424,1.17964 -0.0302,-0.0907 -0.0605,-0.18148 -0.0907,-0.27223 1.71349,-1.09256 1.49182,-2.24562 1.45185,-4.99053 -0.0605,0 -0.12098,0 -0.18148,0 -0.38802,0.24802 -1.5158,0.1791 -1.90534,0.0907 -0.62352,-0.14151 -1.03726,-0.0469 -1.5426,-0.27222 -1.42722,-0.6367 -1.5858,-2.15705 -2.44979,-3.3572 -0.42843,-0.59501 -1.53179,-0.85189 -1.63334,-1.72387 0.0605,0 0.12099,0 0.18149,0 1.62944,-1.07009 3.24247,2.25384 4.08312,2.81276 0.96791,0.64361 2.54032,0.22577 3.53869,0 0.30225,-0.92491 0.5345,-1.61433 1.27037,-2.08683 -0.0927,-0.073 -0.0249,-0.0322 -0.18148,-0.0907 -0.44355,-0.26725 -1.18115,-0.12077 -1.72387,-0.27222 -1.17833,-0.32861 -2.42688,-0.74062 -3.35719,-1.36112 -3.04242,-2.02892 -4.48607,-8.90039 -1.27038,-11.88642 -0.14065,-1.40778 -0.89963,-4.9214001 1.08889,-4.8997901 0.60473,0.1814801 1.20988,0.3629601 1.81461,0.5444401 0.82876,0.35994 1.50802,1.19346 2.44979,1.36112 0.69849,-0.4846 4.58717,-0.84497 5.98847,-0.54445 0.4241,0.091 2.06349,0.48633 2.44979,0.36297 0.2329,-0.0743 0.52111,-0.41979 0.72593,-0.54445 1.02429,-0.62309 2.47895,-1.3189801 3.90165,-1.1796301 0.14929,0.5941401 0.38932,1.2870101 0.54444,1.9960801 0.18365,0.83936 -0.46623,1.93019 -0.0907,2.54053 0.13503,0.3809 0.43253,0.52781 0.63519,0.81667 0.38716,0.55201 0.77929,1.33044 0.99815,1.99609 1.1805,3.59053 -0.41935,8.17403 -2.44979,9.52715 -0.93874,0.62568 -2.22597,0.94954 -3.44795,1.27037 -0.51744,0.1359 -1.54778,-0.0251 -1.8146,0.36297 1.79084,0.6434 1.45164,3.99865 1.45186,6.44218 0,0.57469 0,1.14938 0,1.72386 0.23376,0.7188 1.19389,0.78707 1.36111,1.54259 -0.0907,0.0302 -0.18148,0.0605 -0.27222,0.0907 -0.78102,0.54293 -2.46729,-0.49001 -2.63128,-0.99816 -0.36426,-0.4146 -0.27222,-1.30667 -0.27222,-2.08682 0,-1.49852 0.0959,-3.15887 -0.36296,-4.17387 -0.0914,2.2e-4 -0.18213,2.2e-4 -0.27287,2.2e-4 z" />






</svg>
