<?xml version="1.0" encoding="UTF-8" standalone="no"?>
<!-- Generator: Adobe Illustrator 17.0.0, SVG Export Plug-In . SVG Version: 6.00 Build 0)  -->

<svg
   version="1.1"
   x="0px"
   y="0px"
   width="50"
   height="50"
   viewBox="0 0 50 50.000001"
   enable-background="new 0 0 1094 800"
   xml:space="preserve"
   id="svg96"
   sodipodi:docname="icon-youtube.svg"
   inkscape:version="1.2 (dc2aedaf03, 2022-05-15)"
   xmlns:inkscape="http://www.inkscape.org/namespaces/inkscape"
   xmlns:sodipodi="http://sodipodi.sourceforge.net/DTD/sodipodi-0.dtd"
   xmlns="http://www.w3.org/2000/svg"
   xmlns:svg="http://www.w3.org/2000/svg"
   xmlns:rdf="http://www.w3.org/1999/02/22-rdf-syntax-ns#"
   xmlns:cc="http://creativecommons.org/ns#"
   xmlns:dc="http://purl.org/dc/elements/1.1/"><sodipodi:namedview
   id="namedview49"
   pagecolor="#505050"
   bordercolor="#eeeeee"
   borderopacity="1"
   inkscape:showpageshadow="0"
   inkscape:pageopacity="0"
   inkscape:pagecheckerboard="0"
   inkscape:deskcolor="#505050"
   showgrid="false"
   inkscape:zoom="0.24969708"
   inkscape:cx="-132.16013"
   inkscape:cy="-588.71333"
   inkscape:window-width="1366"
   inkscape:window-height="745"
   inkscape:window-x="-8"
   inkscape:window-y="-8"
   inkscape:window-maximized="1"
   inkscape:current-layer="svg96" /><metadata
   id="metadata102"><rdf:RDF><cc:Work
       rdf:about=""><dc:format>image/svg+xml</dc:format><dc:type
         rdf:resource="http://purl.org/dc/dcmitype/StillImage" /></cc:Work></rdf:RDF></metadata><defs
   id="defs100">
	

	
	

	
	

	
	

	
	

	
	

	
	

	
	

	
	

	
	

	
	

	
	

</defs>










<circle
   style="fill:#ffffff;fill-opacity:1;stroke-width:0.21605"
   id="circle59"
   r="25"
   cy="25"
   cx="25" /><g
   id="g69"
   transform="matrix(0.21604992,0,0,0.21604992,-181.17344,-4.1315314)"
   style="fill:#000000">
		<g
   id="g67"
   style="fill:#000000">
			<g
   id="g65"
   style="fill:#000000">
				<path
   style="fill:#000000"
   id="path61"
   d="m 1016.56,113.916 c 0,-1.1 0.06,-2.898 0.133,-3.996 0,0 1.026,-15.332 -0.884,-21.524 -1.475,-4.783 -4.597,-9.12 -8.257,-11.76 -6.737,-4.859 -28.526,-4.075 -28.526,-4.075 -1.099,0.04 -2.899,0.072 -3.999,0.072 h -60.803 c -1.1,0 -2.881,0.184 -3.958,0.408 l -2.089,0.435 c -1.077,0.224 -2.726,0.877 -3.664,1.451 0,0 -7.285,4.453 -9.803,8.715 -3.401,5.757 -2.82,22.771 -2.82,22.771 0.037,1.099 0.068,2.899 0.068,3.999 v 49.294 c 0,1.1 -0.025,2.9 -0.055,3.999 0,0 -0.409,14.878 1.806,20.019 6.351,14.735 38.285,13.112 38.285,13.112 1.099,-0.056 2.897,-0.102 3.997,-0.102 h 36.033 c 1.1,0 2.896,0.083 3.992,0.184 0,0 23.654,2.18 33.287,-5.438 7.656,-6.054 7.287,-29.526 7.287,-29.526 -0.017,-1.1 -0.031,-2.9 -0.031,-4 v -44.038 z m -39.282,27.274 c -9.757,5.337 -19.517,10.676 -29.274,16.013 -3.18,1.733 -9.386,4.053 -9.386,4.053 -1.03,0.385 -1.961,-0.195 -2.068,-1.29 0,0 -0.806,-8.255 -0.806,-13.022 0,-11.091 0.465,-37.533 0.465,-37.533 0.019,-1.1 0.185,-2.112 0.369,-2.25 0.184,-0.138 1.487,-0.129 2.489,0.324 0,0 7.641,3.457 11.439,5.681 11.508,6.254 32.771,17.81 32.771,17.81 0.966,0.525 1.317,1.74 0.778,2.699 0,10e-4 -3.136,5.589 -6.777,7.515 z" />
				<path
   style="fill:#000000"
   id="path63"
   d="m 1016.56,113.916 c 0,-1.1 0.06,-2.898 0.133,-3.996 0,0 1.026,-15.332 -0.884,-21.524 -1.475,-4.783 -4.597,-9.12 -8.257,-11.76 -6.737,-4.859 -28.526,-4.075 -28.526,-4.075 -1.099,0.04 -2.899,0.072 -3.999,0.072 h -60.803 c -1.1,0 -2.881,0.184 -3.958,0.408 l -2.089,0.435 c -1.077,0.224 -2.726,0.877 -3.664,1.451 0,0 -7.285,4.453 -9.803,8.715 -3.401,5.757 -2.82,22.771 -2.82,22.771 0.037,1.099 0.068,2.899 0.068,3.999 v 49.294 c 0,1.1 -0.025,2.9 -0.055,3.999 0,0 -0.409,14.878 1.806,20.019 6.351,14.735 38.285,13.112 38.285,13.112 1.099,-0.056 2.897,-0.102 3.997,-0.102 h 36.033 c 1.1,0 2.896,0.083 3.992,0.184 0,0 23.654,2.18 33.287,-5.438 7.656,-6.054 7.287,-29.526 7.287,-29.526 -0.017,-1.1 -0.031,-2.9 -0.031,-4 v -44.038 z m -39.282,27.274 c -9.757,5.337 -19.517,10.676 -29.274,16.013 -3.18,1.733 -9.386,4.053 -9.386,4.053 -1.03,0.385 -1.961,-0.195 -2.068,-1.29 0,0 -0.806,-8.255 -0.806,-13.022 0,-11.091 0.465,-37.533 0.465,-37.533 0.019,-1.1 0.185,-2.112 0.369,-2.25 0.184,-0.138 1.487,-0.129 2.489,0.324 0,0 7.641,3.457 11.439,5.681 11.508,6.254 32.771,17.81 32.771,17.81 0.966,0.525 1.317,1.74 0.778,2.699 0,10e-4 -3.136,5.589 -6.777,7.515 z" />
			</g>
		</g>
	</g>


</svg>
