<?xml version="1.0" encoding="UTF-8" standalone="no"?>
<!-- Generator: Adobe Illustrator 17.0.0, SVG Export Plug-In . SVG Version: 6.00 Build 0)  -->

<svg
   version="1.1"
   x="0px"
   y="0px"
   width="50"
   height="50"
   viewBox="0 0 50 50.000001"
   enable-background="new 0 0 1094 800"
   xml:space="preserve"
   id="svg96"
   sodipodi:docname="icon-instagram.svg"
   inkscape:version="1.2 (dc2aedaf03, 2022-05-15)"
   xmlns:inkscape="http://www.inkscape.org/namespaces/inkscape"
   xmlns:sodipodi="http://sodipodi.sourceforge.net/DTD/sodipodi-0.dtd"
   xmlns="http://www.w3.org/2000/svg"
   xmlns:svg="http://www.w3.org/2000/svg"
   xmlns:rdf="http://www.w3.org/1999/02/22-rdf-syntax-ns#"
   xmlns:cc="http://creativecommons.org/ns#"
   xmlns:dc="http://purl.org/dc/elements/1.1/"><sodipodi:namedview
   id="namedview49"
   pagecolor="#505050"
   bordercolor="#eeeeee"
   borderopacity="1"
   inkscape:showpageshadow="0"
   inkscape:pageopacity="0"
   inkscape:pagecheckerboard="0"
   inkscape:deskcolor="#505050"
   showgrid="false"
   inkscape:zoom="0.12484854"
   inkscape:cx="-48.058231"
   inkscape:cy="-440.53378"
   inkscape:window-width="1366"
   inkscape:window-height="745"
   inkscape:window-x="-8"
   inkscape:window-y="-8"
   inkscape:window-maximized="1"
   inkscape:current-layer="svg96" /><metadata
   id="metadata102"><rdf:RDF><cc:Work
       rdf:about=""><dc:format>image/svg+xml</dc:format><dc:type
         rdf:resource="http://purl.org/dc/dcmitype/StillImage" /></cc:Work></rdf:RDF></metadata><defs
   id="defs100">
	

	
	

	
	

	
	

	
	

	
	

	
	

	
	

	
	

	
	

	
	

	
	

</defs>













<circle
   id="circle4712"
   r="25"
   cy="25"
   cx="25"
   style="fill:#ffffff;fill-opacity:1;stroke-width:0.21605" /><path
   class="fil1"
   d="m 17.320581,11.255363 h 15.532235 c 1.550689,0 2.955805,0.63294 3.974833,1.65829 1.025355,1.01903 1.658291,2.42414 1.658291,3.97483 v 15.53224 c 0,1.55069 -0.632936,2.9558 -1.658291,3.97483 -1.019028,1.02536 -2.424144,1.65829 -3.974833,1.65829 H 17.320581 c -1.550692,0 -2.955807,-0.63293 -3.974833,-1.65829 -1.025356,-1.01903 -1.658291,-2.42414 -1.658291,-3.97483 v -15.53224 c 0,-1.55069 0.632935,-2.9558 1.658291,-3.97483 1.019026,-1.02535 2.424141,-1.65829 3.974833,-1.65829 z m 15.9563,4.39257 c 0.303809,0 0.556983,0.25318 0.556983,0.55699 0,0.31013 -0.253174,0.55698 -0.556983,0.55698 -0.310138,0 -0.556984,-0.24685 -0.556984,-0.55698 0,-0.30381 0.246846,-0.55699 0.556984,-0.55699 z m -8.190183,1.52538 c 4.133068,0 7.481295,3.34822 7.481295,7.48129 0,4.13307 -3.348227,7.4813 -7.481295,7.4813 -4.133067,0 -7.481294,-3.34823 -7.481294,-7.4813 0,-4.13307 3.348227,-7.48129 7.481294,-7.48129 z m 6.411636,7.48129 c 0,-3.53811 -2.873527,-6.41163 -6.411636,-6.41163 -3.538109,0 -6.411636,2.87352 -6.411636,6.41163 0,3.53811 2.873527,6.41164 6.411636,6.41164 3.538109,0 6.411636,-2.87353 6.411636,-6.41164 z m 1.354482,-12.32325 H 17.320581 c -1.253213,0 -2.392496,0.51268 -3.22164,1.33549 -0.822817,0.82915 -1.335493,1.96843 -1.335493,3.22164 v 15.53224 c 0,1.25321 0.512676,2.39249 1.335493,3.22164 0.829144,0.82281 1.968427,1.33549 3.22164,1.33549 h 15.532235 c 1.25321,0 2.392493,-0.51268 3.22164,-1.33549 0.822815,-0.82915 1.335493,-1.96843 1.335493,-3.22164 v -15.53224 c 0,-1.25321 -0.512678,-2.39249 -1.335493,-3.22164 -0.829147,-0.82281 -1.96843,-1.33549 -3.22164,-1.33549 z"
   id="path9-3"
   style="clip-rule:evenodd;fill:#000000;fill-opacity:1;fill-rule:nonzero;stroke-width:0.00632936;image-rendering:optimizeQuality;shape-rendering:geometricPrecision;text-rendering:geometricPrecision" /></svg>
